# xmcd
#
# Track frame offsets:
# 150
# 20615
# 40153
# 63975
# 87704
# 110459
# 131289
# 148436
# 174863
# 197040
# 222752
# 245563
# 267050
#
# Disc length: 3641 seconds
#
#
# Revision: 0
# Processed by: cddbd v1.5.2PL0 Copyright (c) Steve Scherf et al.
# Submitted via: Nero 7, 11, 10, 0 
#
DISCID=bc0e370d
DTITLE=George Porter, Jr - Searching For A Joy Ride
DYEAR=2005
DGENRE=Blues
TTITLE0=Money Money
TTITLE1=Got To Find A Way
TTITLE2=Da Boys From Across The Tracks
TTITLE3=Mardi Gras In New Orleans
TTITLE4=The Sound Doctor
TTITLE5=Everybody's Searching (For A Joy Ride)
TTITLE6=Can You See Me Now
TTITLE7=Always Dreaming
TTITLE8=Sunshine In My Night
TTITLE9=I Get High
TTITLE10=Happy Song
TTITLE11=Mardi Gras In New Orleans
TTITLE12=Sam's Dream
EXTD=
EXTT0=Money Money
EXTT1=Got To Find A Way
EXTT2=Da Boys From Across The Tracks
EXTT3=Mardi Gras In New Orleans
EXTT4=The Sound Doctor
EXTT5=Everybody's Searching (For A Joy Ride)
EXTT6=Can You See Me Now
EXTT7=Always Dreaming
EXTT8=Sunshine In My Night
EXTT9=I Get High
EXTT10=Happy Song
EXTT11=Mardi Gras In New Orleans
EXTT12=Sam's Dream
PLAYORDER=
